# xmcd
#
# Track frame offsets:
#	150
#	14354
#	37646
#	51029
#	72289
#	94796
#	110270
#	126096
#	144821
#	162678
#	179317
#	191750
#	205882
#	225835
#	242084
#	260007
#	280789
#	298983
#
# Disc length: 4233 seconds
#
# Revision: 0
# Processed by: cddbd v1.5.1PL0 Copyright (c) Steve Scherf et al.
# Submitted via: dBpowerAMP V4.0
#
DISCID=fd108712
DTITLE=John Denver - Greatest Hits
DYEAR=1900
DGENRE=Country
TTITLE0=take me Home Country Roads
TTITLE1=Sunshine on my Shoulders
TTITLE2=Annies song
TTITLE3=back Home again
TTITLE4=Sweet Surender(Live)
TTITLE5=Thank God I'm A country boy
TTITLE6=I'm Sorry
TTITLE7=Fly Away
TTITLE8=Looking for Space
TTITLE9=Like A sad Song
TTITLE10=baby You Look Good to Me
TTITLE11=How Can I Leave You Again
TTITLE12=What's On Your Mind
TTITLE13=Autograph
TTITLE14=Some day's Are Diamonds
TTITLE15=The Cowboy And The Lady
TTITLE16=Wild Montana Skies
TTITLE17=Dreamland express
EXTD=
EXTT0=
EXTT1=
EXTT2=
EXTT3=
EXTT4=
EXTT5=
EXTT6=
EXTT7=
EXTT8=
EXTT9=
EXTT10=
EXTT11=
EXTT12=
EXTT13=
EXTT14=
EXTT15=
EXTT16=
EXTT17=
PLAYORDER=
